# xmcd CD database file
#
# Track frame offsets:
#	150
#	23928
#	42726
#	59734
#	82789
#	103257
#	125670
#	150790
#	170865
#	191256
#	210378
#	229753
#	243953
#	260435
#	279517
#	298789
#	317666
#	335664
#
# Disc length: 4735 seconds
#
# Revision: 0
# Processed by: cddbd v1.4PL0 Copyright (c) Steve Scherf et al.
# Submitted via: Feurio! 1.66 - http://www.feurio.com
#
DISCID=07127d12
DTITLE=Donell Jones - The Best Of Donell Jones
DYEAR=1900
DGENRE=R&B
TTITLE0=I Hope It's You
TTITLE1=Where I Wanna Be
TTITLE2=Where You Are (Is Where I Wanna Be) pt. 2
TTITLE3=Natural Thang
TTITLE4=All Her Love
TTITLE5=No Interruptions
TTITLE6=Think About It (Don't Call My Crib)
TTITLE7=Guilty By Suspician
TTITLE8=I Want You To Know
TTITLE9=I Wanna Love You
TTITLE10=In The Hood
TTITLE11=Shorty (Got Her Eyes On Me)
TTITLE12=Knocks Me Off My Feet
TTITLE13=Yearnin'
TTITLE14=You Know That I Love You
TTITLE15=You Should Know
TTITLE16=Donell Jones ft. Left Eye - You Know What's Up
TTITLE17=Put Me Down
EXTD=
EXTT0=
EXTT1=
EXTT2=
EXTT3=
EXTT4=
EXTT5=
EXTT6=
EXTT7=
EXTT8=
EXTT9=
EXTT10=
EXTT11=
EXTT12=
EXTT13=
EXTT14=
EXTT15=
EXTT16=
EXTT17=
PLAYORDER=
